PathFileType	4	(X/Y/Z)	Patient4_TMGait_0pt6_01_left_14.trc.trc
DataRate	CameraRate	NumFrames	NumMarkers	Units	OrigDataRate	OrigDataStartFrame	OrigNumFrames
82.352941176471	82.352941176471	4	33	mm	82.352941176471	124	       141
Frame#	Time	Sacral			L.Shoulder			Chest			R.Shoulder			Neck			R.ASIS			L.ASIS			R.Thigh.Superior			R.Thigh.Lateral			R.Thigh.Inferior			R.Patella			L.Thigh.Superior			L.Thigh.Lateral			L.Thigh.Inferior			L.Patella			L.Shank.Superior			L.Shank.Lateral			L.Shank.Inferior			R.Shank.Superior			R.Shank.Lateral			R.Shank.Inferior			R.Heel			R.Midfoot.Superior			R.Midfoot.Lateral			R.Toe			L.Heel			L.Midfoot.Lateral			L.Midfoot.Superior			L.Toe			L.Elbow			L.Wrist			R.Elbow			R.Wrist			
		X1	Y1	Z1	X2	Y2	Z2	X3	Y3	Z3	X4	Y4	Z4	X5	Y5	Z5	X6	Y6	Z6	X7	Y7	Z7	X8	Y8	Z8	X9	Y9	Z9	X10	Y10	Z10	X11	Y11	Z11	X12	Y12	Z12	X13	Y13	Z13	X14	Y14	Z14	X15	Y15	Z15	X16	Y16	Z16	X17	Y17	Z17	X18	Y18	Z18	X19	Y19	Z19	X20	Y20	Z20	X21	Y21	Z21	X22	Y22	Z22	X23	Y23	Z23	X24	Y24	Z24	X25	Y25	Z25	X26	Y26	Z26	X27	Y27	Z27	X28	Y28	Z28	X29	Y29	Z29	X30	Y30	Z30	X31	Y31	Z31	X32	Y32	Z32	X33	Y33	Z33	

124	18.503571428571	635.535514932028	1002.608615856752	498.435870254499	783.888564490632	1434.559680040950	319.620880317851	907.675978122895	1357.148366192795	461.115959521666	850.000386705184	1421.378493855847	647.120847137189	790.199284719398	1487.195203625400	476.478311047197	866.457584997549	930.754080415627	596.131442084341	833.078863452086	953.551197765466	322.776209411313	859.260976987516	718.811824110267	568.405041844117	751.007483295442	627.283475349926	627.140083300955	809.870175172595	560.715915058997	547.121529169062	786.766732162450	475.804939485470	548.911001343052	907.166291966864	764.922101289029	355.176109811633	852.546767150543	634.493387492438	283.607935737309	955.284601924649	576.280995173587	345.077854893623	980.044527463798	510.140133214562	344.465501422203	963.358751173848	437.539910940579	337.432794844118	894.590458557426	307.111694847866	292.618985544873	980.469102077940	209.119224969505	350.194236984655	745.069265151494	393.714180167092	553.392187286576	656.996403547488	301.071904650409	611.740008981088	683.805539117424	202.685059976787	544.595708116778	530.379305015271	46.488042298051	507.319118330783	704.298715463477	96.704220766209	543.772438026966	613.943688846154	36.648660634648	580.179253916114	821.960913808225	40.842094272955	569.025504258754	890.051986168091	39.591178510991	393.881687989234	964.548148920906	37.480352123077	313.909828695899	1042.469211510718	106.320295570151	335.228181845130	1173.315464622187	62.795292008630	310.316998388526	635.200808197946	1113.544863741566	223.395976936942	585.753528947739	858.771868408893	227.958099490834	997.860236947406	1108.839587003937	741.531475450834	1226.121955882039	1185.543914109888	666.004378207531	
125	18.515714285714	636.262500975424	1001.848924182392	495.831504300365	784.543888151580	1433.584198727819	317.279609598680	908.003624701027	1356.665684281312	459.277717065233	849.464427816799	1420.909213814162	645.112681248443	790.339318845092	1486.501646233917	474.109303936092	866.960019365748	929.745512760242	594.496837759868	834.557026946498	952.721830957739	321.181076979359	859.110403970916	717.617643847289	567.112060192276	749.958604618341	626.807408565965	625.580159071105	808.670207072753	559.570097739131	545.941349527552	784.713399409108	474.471959325812	547.562796448788	908.444563272931	763.415797277847	354.640526487301	853.080180322232	633.279044213541	283.468163267564	955.231255204710	574.919620217109	345.984108186708	978.895109557013	507.778956048298	345.994890197704	961.389255284416	434.863152384196	338.775795695622	890.588784901970	305.596938230535	293.691055059669	973.794835740630	206.096703957601	352.462055179159	742.046485263493	392.918319110644	552.372737780858	652.824116268693	301.529894224377	611.057629097016	678.267506910766	202.602869985796	544.253433055103	523.229921344972	47.604216462423	507.525520677072	697.368205217757	96.806642767881	543.917899973088	606.760636585325	37.041282263009	580.293382678342	814.800518559210	40.316728150777	569.086728277763	879.287534318438	38.556603261599	395.154861892851	954.271195720614	36.129520446212	315.545914687516	1033.639076429918	102.775358770666	338.699014549445	1163.959127022877	56.507593385135	313.998344108581	636.962183290003	1111.914182992237	221.178201925192	588.842421475335	856.730031573405	226.390710707849	996.055025724835	1107.681958472961	740.546764591582	1222.502324768125	1187.346642871182	663.450763222316	
126	18.527857142857	637.029979138026	1001.358869941559	493.165876261533	785.283451087254	1432.814424377807	314.885293382539	908.443128864287	1356.394405836325	457.373271616506	849.086487555607	1420.683408227213	643.043676498309	790.594474688052	1486.036645654611	471.672797814143	867.508713741909	928.889069019175	592.702520132839	836.021376683094	952.199800370292	319.472817334171	858.941202691563	716.600333564013	565.568512791498	748.989613087611	626.505741186970	623.893862894517	807.535060913651	558.615320576326	544.608058438312	782.783485839638	473.267491647063	546.155485150061	909.781975762426	762.336212934413	354.032703004456	853.776413364387	632.536379119609	283.123398979140	955.366356145069	574.016127444961	346.662141854011	977.875034101983	505.926265082926	347.266990519917	959.688123814531	432.737194681202	339.760003154264	887.225820850585	304.569795734327	294.241724851219	967.787868886919	203.741609391592	354.194593139375	739.092390995398	392.268212493110	551.317629958946	648.691380174664	302.206576602760	610.353845228028	672.816835738586	202.715430092019	543.966307204041	516.123422697250	49.007042219518	507.788935146056	690.563835907352	96.969182688766	544.134730258019	599.618193658333	37.549643103889	580.449235263514	807.677729544978	39.771258372977	569.144593233798	869.583399072041	37.887678194202	395.968922538171	944.972092571800	35.351895966339	316.653488339188	1025.455125870514	100.190926853027	341.429956130351	1155.345391717533	51.752955732105	316.839212527096	639.500403021315	1110.135475263562	218.694427245384	593.140545415054	854.442588431134	224.373778343276	993.674663830959	1106.375468647387	739.696354103628	1218.874786435051	1187.816435310679	661.260597752062	
127	18.540000000000	637.819355388334	1001.190796314385	490.451191695585	786.101385170327	1432.303993126806	312.464462864558	908.998121392727	1356.349574910136	455.406375257959	848.912923463889	1420.732562390904	640.917354017114	790.967277232720	1485.829162455313	469.199135555816	868.072017079513	928.238726749266	590.737322906409	837.432200373764	952.018029114653	317.613572094688	858.727049920025	715.814386001353	563.798234841533	748.105078583749	626.409898804575	622.109426805444	806.504721167423	557.887830542135	543.160236924428	781.051587153503	472.199333716757	544.769743194254	911.146992263020	761.787742336600	353.322603413467	854.687184042604	632.307710777305	282.547631860078	955.713685061631	573.592447567823	347.034542319215	977.021900081428	504.598085774288	348.193840278043	958.266202146219	431.158945798943	340.364936734214	884.473099719921	304.025950508956	294.266758429252	962.403559806272	202.029338102814	355.391539081524	736.248578194145	391.777840084119	550.276160422392	644.618174456455	303.136085728847	609.654607881968	667.485416011498	203.050784878507	543.767484170060	509.074245010376	50.739150611148	508.117774947192	683.909800218983	97.199402003008	544.441431245005	592.524636538345	38.190568671614	580.650488109378	800.590580393035	39.220625900881	569.195330255556	860.898037686348	37.547183730566	396.394348255440	936.588945454244	35.038168596395	317.290748837692	1017.871134085466	98.495024956617	343.382550733635	1147.430433685799	48.448631728740	318.799099894544	642.768979303262	1108.308374752678	215.971406857823	598.637266479938	852.014883304323	221.912464749456	990.695680007701	1104.961147278443	738.952156421477	1215.287486330403	1186.912429786308	659.440902572347	
